<svg class="icon" viewBox="0 0 1152 1024" xmlns="http://www.w3.org/2000/svg" width="225" height="200"><defs><style/></defs><path d="M978.56 186.182c0 24.522-16.638 46.545-37.158 46.545H177.188c-20.52 0-37.16-22.023-37.16-46.545 0-24.522 16.639-46.546 37.16-46.546h764.214c20.52 0 37.158 22.024 37.158 46.546zm0 325.818c0 24.522-16.638 46.545-37.158 46.545H177.188c-20.52 0-37.16-22.023-37.16-46.545 0-24.522 16.639-46.545 37.16-46.545h764.214c20.52 0 37.158 22.023 37.158 46.545zm0 325.818c0 24.522-16.638 46.546-37.158 46.546H177.188c-20.52 0-37.16-22.024-37.16-46.546s16.639-46.545 37.16-46.545h764.214c20.52 0 37.158 22.023 37.158 46.545z"/></svg>