<svg class="icon" viewBox="0 0 1024 1024" xmlns="http://www.w3.org/2000/svg" width="200" height="200"><defs><style/></defs><path d="M905.325 737.104l-66.421-51.65c-11.461-8.904-18.033-22.346-18.033-36.882V410.418c0-41.676-8.178-82.125-24.304-120.227-15.544-36.774-37.797-69.791-66.14-98.141-28.31-28.336-61.333-50.594-98.152-66.157a310.216 310.216 0 00-39.96-13.75v-31.9c-.032-44.247-36.047-80.244-80.279-80.244-44.262 0-80.272 35.997-80.272 80.245v31.88a312.742 312.742 0 00-39.966 13.752c-36.741 15.528-69.764 37.787-98.147 66.152-28.325 28.298-50.587 61.317-66.169 98.142-16.127 38.155-24.305 78.602-24.305 120.218v238.13c0 14.527-6.57 27.97-18.03 36.882l-66.427 51.659c-13.141 10.224-22.312 24.01-26.524 39.865-3.854 14.488-3.308 29.66 1.577 43.874 4.88 14.253 13.758 26.57 25.68 35.62 13.103 9.932 28.812 15.183 45.427 15.183h694.26c16.622 0 32.328-5.241 45.428-15.155 11.906-9.035 20.789-21.352 25.684-35.617 4.893-14.223 5.446-29.396 1.599-43.884-4.219-15.844-13.39-29.621-26.526-39.841zm-102.605-5.157l66.414 51.643c6.768 5.288 7.229 12.823 5.4 18.117-1.817 5.306-6.807 10.976-15.365 10.976H164.881c-8.566 0-13.547-5.668-15.354-10.976-1.814-5.303-1.35-12.849 5.385-18.113l66.414-51.647c25.925-20.156 40.795-50.552 40.795-83.396V410.387c0-137.799 112.112-249.903 249.914-249.903 137.782 0 249.873 112.106 249.873 249.903V648.55c.02 32.848 14.898 63.245 40.812 83.396zM512.035 58.935c11.754 0 21.316 9.56 21.316 21.31v18.147H490.7V80.244c0-11.75 9.571-21.309 21.334-21.309zM406.366 918.343c0 58.26 47.404 105.657 105.67 105.657 58.254 0 105.648-47.398 105.648-105.657v-4.075H406.366v4.075zM243.198 128.56c6.113-4.952 9.939-11.992 10.773-19.827.838-7.843-1.432-15.524-6.395-21.636-5.634-6.922-13.992-10.892-22.933-10.892a29.565 29.565 0 00-18.515 6.545c-48.966 39.622-89.285 87.59-119.838 142.576-31.335 56.47-50.82 117.649-57.918 181.835-.87 7.808 1.362 15.495 6.287 21.646 4.923 6.147 11.94 10.012 19.74 10.88a28.15 28.15 0 003.272.188c15.023 0 27.598-11.272 29.248-26.218 12.467-112.38 67.968-213.628 156.28-285.097zm752.434 278.577c-7.075-64.164-26.551-125.334-57.894-181.81C907.214 170.36 866.893 122.38 817.9 82.718a29.551 29.551 0 00-18.521-6.54c-8.923 0-17.281 3.98-22.937 10.924-4.943 6.112-7.213 13.79-6.388 21.626.823 7.836 4.641 14.87 10.75 19.802 88.346 71.502 143.838 172.75 156.257 285.095 1.667 14.953 14.243 26.226 29.25 26.226 1.131 0 2.235-.061 3.263-.183 7.812-.856 14.836-4.722 19.778-10.884 4.905-6.117 7.136-13.803 6.279-21.647z"/></svg>